<?xml version="1.0" encoding="utf-8"?>
<!-- Generator: Adobe Illustrator 24.0.3, SVG Export Plug-In . SVG Version: 6.00 Build 0)  -->
<svg version="1.1" id="Ebene_1" xmlns="http://www.w3.org/2000/svg" xmlns:xlink="http://www.w3.org/1999/xlink" x="0px" y="0px"
	 viewBox="0 0 40 21.5" style="enable-background:new 0 0 40 21.5;" xml:space="preserve">
<style type="text/css">
	.Schlagschatten{fill:none;}
	.Abgerundete_x0020_Ecken_x0020_2_x0020_Pt_x002E_{fill:#FFFFFF;stroke:#1D1D1B;stroke-miterlimit:10;}
	.Interaktiv_x0020_X_x0020_spiegeln{fill:none;}
	.Weich_x0020_abgeflachte_x0020_Kante{fill:url(#SVGID_1_);}
	.Abenddämmerung{fill:#FFFFFF;}
	.Laub_GS{fill:#FFDD00;}
	.Pompadour_GS{fill-rule:evenodd;clip-rule:evenodd;fill:#51AEE2;}
	.st0{fill-rule:evenodd;clip-rule:evenodd;fill:#05A56F;}
</style>
<linearGradient id="SVGID_1_" gradientUnits="userSpaceOnUse" x1="-9.9443" y1="-10.1941" x2="-9.2372" y2="-9.487">
	<stop  offset="0" style="stop-color:#E6E6EB"/>
	<stop  offset="0.1754" style="stop-color:#E2E2E7"/>
	<stop  offset="0.3552" style="stop-color:#D6D6DB"/>
	<stop  offset="0.5371" style="stop-color:#C2C3C6"/>
	<stop  offset="0.7204" style="stop-color:#A5A7A9"/>
	<stop  offset="0.9031" style="stop-color:#818485"/>
	<stop  offset="1" style="stop-color:#6B6E6E"/>
</linearGradient>
<path class="st0" d="M22.9,8.7c0.7-3.1,3.3-4.9,6.3-4.9c3.8,0,5.8,2.4,6.3,4.9L22.9,8.7L22.9,8.7z M18.1,11.4c0,3.7-2.8,6.3-7.1,6.3
	c-4.3,0-7.1-2.6-7.1-6.3V8.7h2.7V4.9c0-0.4,0.2-0.8,0.6-1c0.4-0.2,0.9-0.2,1.3,0c0.4,0.2,0.6,0.6,0.6,1v3.8h3.6V4.9
	c0-0.4,0.2-0.8,0.6-1c0.4-0.2,0.9-0.2,1.3,0c0.4,0.2,0.6,0.6,0.6,1v3.8h2.7V11.4z M40,10.8C40,4.7,35.2,0,29.2,0c-3.8,0-7,1.8-9,4.6
	c-2-2.8-5.3-4.6-9.1-4.6C4.8,0,0,4.7,0,10.8c0,6.1,4.8,10.8,11.1,10.8c3.9,0,7.2-1.8,9.1-4.6c1.9,2.8,5.2,4.6,9,4.6
	c4.2,0,6.8-1.7,8.4-3.3c1-1,1.7-2.1,2.2-3.4h-4.6c-0.4,0.5-0.8,1-1.4,1.4c-1,0.8-2.5,1.4-4.7,1.4c-3.1,0-5.8-2-6.5-5.5H40L40,10.8
	L40,10.8z"/>
</svg>
